SplineFontDB: 3.2
FontName: BIZUDGothic-Bold
FullName: BIZ UDGothic Bold
FamilyName: BIZ UDGothic
Weight: Bold
Copyright: Copyright 2022 The BIZ UDGothic Project Authors (https://github.com/googlefonts/morisawa-biz-ud-gothic)
Version: 1.051
ItalicAngle: 0
UnderlinePosition: -297
UnderlineWidth: 102
Ascent: 1802
Descent: 246
InvalidEm: 0
sfntRevision: 0x00010d0e
LayerCount: 2
Layer: 0 1 "+gMyXYgAA" 1
Layer: 1 1 "+Uk2XYgAA" 0
HasVMetrics: 1
XUID: [1021 728 -894377814 6324]
StyleMap: 0x0020
FSType: 0
OS2Version: 4
OS2_WeightWidthSlopeOnly: 0
OS2_UseTypoMetrics: 0
CreationTime: 1694023314
ModificationTime: 1717864593
PfmFamily: 17
TTFWeight: 700
TTFWidth: 5
LineGap: 0
VLineGap: 0
Panose: 2 11 8 0 0 0 0 0 0 0
OS2TypoAscent: 1802
OS2TypoAOffset: 0
OS2TypoDescent: -246
OS2TypoDOffset: 0
OS2TypoLinegap: 0
OS2WinAscent: 1802
OS2WinAOffset: 0
OS2WinDescent: 246
OS2WinDOffset: 0
HheadAscent: 1802
HheadAOffset: 0
HheadDescent: -246
HheadDOffset: 0
OS2SubXSize: 1024
OS2SubYSize: 1556
OS2SubXOff: 0
OS2SubYOff: 307
OS2SupXSize: 1024
OS2SupYSize: 1556
OS2SupXOff: 0
OS2SupYOff: 0
OS2StrikeYSize: 102
OS2StrikeYPos: 727
OS2CapHeight: 1567
OS2XHeight: 1108
OS2Vendor: 'MRSW'
OS2CodePages: 20020009.00000000
OS2UnicodeRanges: e00002f7.2ac7edf8.00000012.00000000
MarkAttachClasses: 1
DEI: 91125
TtTable: prep
NPUSHB
 255
 177
 74
 18
 31
 176
 77
 255
 31
 175
 78
 255
 31
 174
 74
 255
 31
 173
 74
 128
 31
 172
 75
 255
 31
 171
 76
 255
 31
 170
 73
 128
 31
 169
 73
 147
 31
 168
 73
 30
 31
 167
 72
 36
 31
 166
 72
 61
 31
 165
 72
 255
 31
 164
 72
 52
 31
 163
 71
 69
 31
 162
 71
 255
 31
 161
 71
 74
 31
 160
 70
 86
 31
 159
 70
 255
 31
 158
 70
 47
 31
 157
 69
 9
 31
 156
 67
 7
 31
 155
 68
 36
 31
 154
 68
 255
 31
 153
 68
 25
 31
 152
 66
 205
 31
 151
 66
 255
 31
 150
 63
 255
 31
 149
 63
 103
 31
 148
 64
 255
 31
 147
 65
 86
 31
 146
 65
 255
 31
 145
 65
 69
 31
 144
 62
 255
 31
 143
 60
 255
 31
 142
 60
 171
 31
 141
 61
 255
 31
 140
 59
 255
 31
 139
 58
 255

StartChar: uni3071
Encoding: 12401 12401 0
Width: 2048
GlyphClass: 1
Flags: W
LayerCount: 2
Fore
SplineSet
1720 1643.70019531 m 0,0,1
 1672 1644 1672 1644 1629 1616.40039062 c 0,2,3
 1552 1568 1552 1568 1552.29980469 1474.70019531 c 0,4,5
 1552 1408 1552 1408 1597.79980469 1360.29980469 c 0,6,7
 1647 1308 1647 1308 1720 1308.29980469 c 0,8,9
 1762 1308 1762 1308 1796.70019531 1326.5 c 0,10,11
 1888 1373 1888 1373 1887.70019531 1474.70019531 c 0,12,13
 1887.98820209 1543.19421126 1887.98820209 1543.19421126 1837 1595.59960938 c 0,14,15
 1790 1644 1790 1644 1720 1643.70019531 c 0,0,1
1721.29980469 1803.59960938 m 0,16,17
 1804.5843788 1803.9842263 1804.5843788 1803.9842263 1887.70019531 1755.5 c 0,18,19
 1966 1710 1966 1710 2008.59960938 1628.09960938 c 0,20,21
 2048 1555 2048 1555 2047.59960938 1476 c 0,22,23
 2048 1349 2048 1349 1956.59960938 1251.09960938 c 0,24,25
 1943.69844957 1237.3303556 1943.69844957 1237.3303556 1930 1225.40716737 c 1,26,-1
 1930 1052 l 1,27,-1
 1504 1052 l 1,28,-1
 1514 505 l 1,29,30
 1752 398 1752 398 1991 196 c 1,31,-1
 1879 -3 l 1,32,33
 1685 166 1685 166 1520 270 c 1,34,35
 1503 26 1503 26 1347 -58 c 0,36,37
 1259 -104 1259 -104 1109 -104 c 0,38,39
 944 -104 944 -104 823 -45 c 0,40,41
 640 44 640 44 640 249 c 0,42,43
 640 424 640 424 795 520 c 0,44,45
 920 597 920 597 1108 597 c 0,46,47
 1203 597 1203 597 1293 577 c 1,48,-1
 1281 1052 l 1,49,-1
 660 1052 l 1,50,-1
 660 1249 l 1,51,-1
 1270 1249 l 1,52,-1
 1260 1667 l 1,53,-1
 1455.23520628 1667 l 1,54,55
 1490.38580465 1716.6505637 1490.38580465 1716.6505637 1540.59960938 1750.29980469 c 0,56,57
 1622 1804 1622 1804 1721.29980469 1803.59960938 c 0,16,17
217 -100 m 1,58,59
 182 230 182 230 182 594 c 0,60,61
 182 1162 182 1162 258 1677 c 1,62,-1
 478 1645 l 1,63,64
 403 1201 403 1201 403 685 c 0,65,66
 403 306 403 306 441 -66 c 1,67,-1
 217 -100 l 1,58,59
1303 380 m 1,68,69
 1187 417 1187 417 1095 417 c 0,70,71
 1008 417 1008 417 947 391 c 0,72,73
 851 349 851 349 851 257 c 0,74,75
 851 180 851 180 921 137 c 0,76,77
 989 96 989 96 1103 96 c 0,78,79
 1303 96 1303 96 1303 321 c 2,80,-1
 1303 380 l 1,68,69
EndSplineSet
EndChar

StartChar: uni3074
Encoding: 12404 12404 1
Width: 2048
GlyphClass: 1
Flags: W
LayerCount: 2
Fore
SplineSet
1741 1658.70019531 m 0,0,1
 1693 1659 1693 1659 1650 1631.40039062 c 0,2,3
 1573 1583 1573 1583 1573.29980469 1489.70019531 c 0,4,5
 1573 1423 1573 1423 1618.79980469 1375.29980469 c 0,6,7
 1668 1323 1668 1323 1741 1323.29980469 c 0,8,9
 1783 1323 1783 1323 1817.70019531 1341.5 c 0,10,11
 1909 1388 1909 1388 1908.70019531 1489.70019531 c 0,12,13
 1908.98820209 1558.19421126 1908.98820209 1558.19421126 1858 1610.59960938 c 0,14,15
 1811 1659 1811 1659 1741 1658.70019531 c 0,0,1
1742.29980469 1818.59960938 m 0,16,17
 1825.5843788 1818.9842263 1825.5843788 1818.9842263 1908.70019531 1770.5 c 0,18,19
 1987 1725 1987 1725 2029.59960938 1643.09960938 c 0,20,21
 2069 1570 2069 1570 2068.59960938 1491 c 0,22,23
 2069 1364 2069 1364 1977.59960938 1266.09960938 c 0,24,25
 1881 1163 1881 1163 1739.70019531 1163.40039062 c 0,26,27
 1674.41333731 1163.02535228 1674.41333731 1163.02535228 1604.5 1194.59960938 c 0,28,29
 1604.07852409 1194.79019183 1604.07852409 1194.79019183 1603.6578616 1194.9817714 c 1,30,31
 1769.49531437 1018.02419407 1769.49531437 1018.02419407 1993 895 c 1,32,-1
 1882 705 l 1,33,34
 1637 878 1637 878 1487 1124 c 1,35,36
 1540 965 1540 965 1558 883 c 0,37,38
 1581 773 1581 773 1581 647 c 0,39,40
 1581 303 1581 303 1446 114 c 0,41,42
 1259 -145 1259 -145 863 -145 c 0,43,44
 523 -145 523 -145 349 57 c 0,45,46
 192 238 192 238 192 543 c 0,47,48
 192 712 192 712 279 901 c 0,49,50
 404 1172 404 1172 651 1389 c 1,51,52
 400 1253 400 1253 107 1165 c 1,53,-1
 39 1370 l 1,54,55
 464 1469 464 1469 840 1640 c 1,56,-1
 979 1473 l 1,57,58
 678 1233 678 1233 533 988 c 0,59,60
 405 769 405 769 405 566 c 0,61,62
 405 72 405 72 867 72 c 0,63,64
 1154 72 1154 72 1292 302 c 0,65,66
 1392 468 1392 468 1392 747 c 0,67,68
 1392 948 1392 948 1331 1150 c 0,69,70
 1304 1237 1304 1237 1266 1307 c 1,71,-1
 1426.26752746 1400.17879504 l 1,72,73
 1413.21323048 1444.4803871 1413.21323048 1444.4803871 1413.40039062 1492.29980469 c 0,74,75
 1413 1562 1413 1562 1444.59960938 1628.79980469 c 0,76,77
 1510.37878995 1766.69771008 1510.37878995 1766.69771008 1657.79980469 1806.90039062 c 0,78,79
 1701 1819 1701 1819 1742.29980469 1818.59960938 c 0,16,17
EndSplineSet
EndChar

StartChar: uni3077
Encoding: 12407 12407 2
Width: 2048
GlyphClass: 1
Flags: W
LayerCount: 2
Fore
SplineSet
1706.54980469 1615.40039062 m 0,0,1
 1660 1615 1660 1615 1616.84960938 1588.09960938 c 0,2,3
 1540 1540 1540 1540 1540.15039062 1446.40039062 c 0,4,5
 1540 1380 1540 1380 1585.65039062 1332 c 0,6,7
 1634 1280 1634 1280 1707.84960938 1280 c 0,8,9
 1748 1280 1748 1280 1784.54980469 1298.20019531 c 0,10,11
 1874 1345 1874 1345 1874.25 1446.40039062 c 0,12,13
 1874.00894497 1515.43817343 1874.00894497 1515.43817343 1823.54980469 1567.29980469 c 0,14,15
 1777 1615 1777 1615 1706.54980469 1615.40039062 c 0,0,1
1709.15039062 1775.29980469 m 0,16,17
 1792.28549632 1775.01282246 1792.28549632 1775.01282246 1874.25 1727.20019531 c 0,18,19
 1952 1682 1952 1682 1995.15039062 1599.79980469 c 0,20,21
 2034 1527 2034 1527 2034.15039062 1447.70019531 c 0,22,23
 2034 1320 2034 1320 1943.15039062 1222.79980469 c 0,24,25
 1847 1120 1847 1120 1706.54980469 1120.09960938 c 0,26,27
 1636 1120 1636 1120 1571.34960938 1150 c 0,28,29
 1491 1188 1491 1188 1440.04980469 1260.5 c 0,30,31
 1404.54753473 1311.04877526 1404.54753473 1311.04877526 1390.1220782 1367.71439014 c 1,32,-1
 1321 1235 l 1,33,34
 996 1404 996 1404 544 1503 c 1,35,-1
 634 1688 l 1,36,37
 1058.79428805 1608.1161184 1058.79428805 1608.1161184 1380.24908252 1447.85707511 c 1,38,39
 1380.24908252 1448.42826796 1380.24908252 1448.42826796 1380.25 1449 c 0,40,41
 1380 1528 1380 1528 1420.54980469 1602.40039062 c 0,42,43
 1462.7999994 1679.27512022 1462.7999994 1679.27512022 1528.45019531 1722 c 0,44,45
 1610 1775 1610 1775 1709.15039062 1775.29980469 c 0,16,17
1744 102 m 1,46,47
 1632 564 1632 564 1427 942 c 1,48,-1
 1613 1024 l 1,49,50
 1841 646 1841 646 1951 190 c 1,51,-1
 1744 102 l 1,46,47
61 182 m 1,52,53
 260 510 260 510 340 975 c 1,54,-1
 548 907 l 1,55,56
 451 372 451 372 251 68 c 1,57,-1
 61 182 l 1,52,53
647 287 m 1,58,59
 767 102 767 102 912 102 c 0,60,61
 1081 102 1081 102 1081 293 c 0,62,63
 1081 435 1081 435 994 647 c 0,64,65
 904 865 904 865 763 1032 c 1,66,-1
 944 1126 l 1,67,68
 1135 901 1135 901 1237 635 c 0,69,70
 1312 439 1312 439 1312 281 c 0,71,72
 1312 106 1312 106 1225 2 c 0,73,74
 1121 -121 1121 -121 922 -121 c 0,75,76
 688 -121 688 -121 544 115 c 1,77,-1
 647 287 l 1,58,59
EndSplineSet
EndChar

StartChar: uni307A
Encoding: 12410 12410 3
Width: 2048
GlyphClass: 1
Flags: W
LayerCount: 2
Fore
SplineSet
86 342 m 1,0,1
 225 521 225 521 355 745 c 0,2,3
 526 1037 526 1037 643 1319 c 0,4,5
 701 1460 701 1460 826 1460 c 0,6,7
 896 1460 896 1460 954 1410 c 0,8,9
 992 1377 992 1377 1066 1251 c 0,10,11
 1169 1077 1169 1077 1353 834 c 0,12,13
 1644 450 1644 450 1960 164 c 1,14,-1
 1815 -27 l 1,15,16
 1352 401 1352 401 876 1138 c 0,17,18
 844 1188 844 1188 828 1188 c 0,19,20
 807 1188 807 1188 772 1098 c 0,21,22
 685 872 685 872 515 574 c 0,23,24
 395 365 395 365 268 193 c 1,25,-1
 86 342 l 1,0,1
1609.29980469 1667.59960938 m 4,26,27
 1692.5843788 1667.9842263 1692.5843788 1667.9842263 1775.70019531 1619.5 c 4,28,29
 1854 1574 1854 1574 1896.59960938 1492.09960938 c 4,30,31
 1936 1419 1936 1419 1935.59960938 1340 c 4,32,33
 1936 1213 1936 1213 1844.59960938 1115.09960938 c 4,34,35
 1748 1012 1748 1012 1606.70019531 1012.40039062 c 4,36,37
 1539.02053715 1012.01710596 1539.02053715 1012.01710596 1471.5 1043.59960938 c 4,38,39
 1391 1081 1391 1081 1340.20019531 1152.79980469 c 4,40,41
 1280 1239 1280 1239 1280.40039062 1341.29980469 c 4,42,43
 1280 1421 1280 1421 1320.70019531 1494.70019531 c 4,44,45
 1361 1569 1361 1569 1428.59960938 1614.29980469 c 4,46,47
 1510 1668 1510 1668 1609.29980469 1667.59960938 c 4,26,27
1608 1507.70019531 m 4,48,49
 1560 1508 1560 1508 1517 1480.40039062 c 4,50,51
 1440 1432 1440 1432 1440.29980469 1338.70019531 c 4,52,53
 1440 1272 1440 1272 1485.79980469 1224.29980469 c 4,54,55
 1535 1172 1535 1172 1608 1172.29980469 c 4,56,57
 1650 1172 1650 1172 1684.70019531 1190.5 c 4,58,59
 1776 1237 1776 1237 1775.70019531 1338.70019531 c 4,60,61
 1775.98820209 1407.19421126 1775.98820209 1407.19421126 1725 1459.59960938 c 4,62,63
 1678 1508 1678 1508 1608 1507.70019531 c 4,48,49
EndSplineSet
EndChar

StartChar: uni307D
Encoding: 12413 12413 4
Width: 2048
GlyphClass: 1
Flags: W
LayerCount: 2
Fore
SplineSet
207 -125 m 1,0,1
 165 216 165 216 165 617 c 0,2,3
 165 1186 165 1186 240 1663 c 1,4,-1
 457 1632 l 1,5,6
 384 1197 384 1197 384 660 c 0,7,8
 384 269 384 269 424 -86 c 1,9,-1
 207 -125 l 1,0,1
1272 344 m 1,10,11
 1168 381 1168 381 1070 381 c 128,-1,12
 972 381 972 381 911 349 c 0,13,14
 835 309 835 309 835 232 c 0,15,16
 835 176 835 176 885 136 c 0,17,18
 957 77 957 77 1072 77 c 0,19,20
 1272 77 1272 77 1272 272 c 2,21,-1
 1272 344 l 1,10,11
1714.29980469 1635.20019531 m 0,22,23
 1666.29980469 1635.5 1666.29980469 1635.5 1623.29980469 1607.90039062 c 0,24,25
 1546.29980469 1559.5 1546.29980469 1559.5 1546.59960938 1466.20019531 c 0,26,27
 1546.29980469 1399.5 1546.29980469 1399.5 1592.09960938 1351.79980469 c 0,28,29
 1641.29980469 1299.5 1641.29980469 1299.5 1714.29980469 1299.79980469 c 0,30,31
 1756.29980469 1299.5 1756.29980469 1299.5 1791 1318 c 0,32,33
 1882.29980469 1364.5 1882.29980469 1364.5 1882 1466.20019531 c 0,34,35
 1882.28808594 1534.69433594 1882.28808594 1534.69433594 1831.29980469 1587.09960938 c 0,36,37
 1784.29980469 1635.5 1784.29980469 1635.5 1714.29980469 1635.20019531 c 0,22,23
1715.59960938 1795.09960938 m 0,38,39
 1798.88378906 1795.484375 1798.88378906 1795.484375 1882 1747 c 0,40,41
 1960.29980469 1701.5 1960.29980469 1701.5 2002.89941406 1619.59960938 c 0,42,43
 2042.29980469 1546.5 2042.29980469 1546.5 2041.89941406 1467.5 c 0,44,45
 2042.29980469 1340.5 2042.29980469 1340.5 1950.89941406 1242.59960938 c 0,46,47
 1854.29980469 1139.5 1854.29980469 1139.5 1713 1139.90039062 c 0,48,49
 1645.3203125 1139.51757812 1645.3203125 1139.51757812 1577.79980469 1171.09960938 c 0,50,51
 1519.47619049 1198.19682619 1519.47619049 1198.19682619 1476.74294556 1243.35114875 c 1,52,-1
 1481 1053 l 1,53,-1
 1915 1053 l 1,54,-1
 1915 858 l 1,55,-1
 1485 858 l 1,56,-1
 1491 467 l 1,57,58
 1739 357 1739 357 1964 178 c 1,59,-1
 1849 -14 l 1,60,61
 1688 125 1688 125 1491 242 c 1,62,63
 1460 -111 1460 -111 1082 -111 c 0,64,65
 897 -111 897 -111 766 -19 c 0,66,67
 624 80 624 80 624 233 c 0,68,69
 624 400 624 400 773 490 c 0,70,71
 893 563 893 563 1073 563 c 0,72,73
 1166 563 1166 563 1270 538 c 1,74,-1
 1263 858 l 1,75,-1
 657 858 l 1,76,-1
 657 1053 l 1,77,-1
 1259 1053 l 1,78,-1
 1253 1366 l 1,79,-1
 704 1366 l 1,80,-1
 704 1561 l 1,81,-1
 1400.61091458 1561 l 1,82,83
 1410.37773761 1592.10048756 1410.37773761 1592.10048756 1427 1622.20019531 c 0,84,85
 1467.29980469 1696.5 1467.29980469 1696.5 1534.89941406 1741.79980469 c 0,86,87
 1616.29980469 1795.5 1616.29980469 1795.5 1715.59960938 1795.09960938 c 0,38,39
EndSplineSet
EndChar

StartChar: uni30D1
Encoding: 12497 12497 5
Width: 2048
GlyphClass: 1
Flags: W
LayerCount: 2
Fore
SplineSet
1710.70019531 1639.40039062 m 0,0,1
 1663 1639 1663 1639 1619.70019531 1612.09960938 c 0,2,3
 1543 1564 1543 1564 1543 1470.40039062 c 0,4,5
 1543 1404 1543 1404 1588.5 1356 c 0,6,7
 1638 1304 1638 1304 1710.70019531 1304 c 0,8,9
 1752 1304 1752 1304 1787.40039062 1322.20019531 c 0,10,11
 1878 1369 1878 1369 1878.40039062 1470.40039062 c 0,12,13
 1878.01348767 1539.58807514 1878.01348767 1539.58807514 1827.70019531 1591.29980469 c 0,14,15
 1781 1639 1781 1639 1710.70019531 1639.40039062 c 0,0,1
1712 1799.29980469 m 0,16,17
 1799 1799 1799 1799 1878.40039062 1751.20019531 c 0,18,19
 1956 1704 1956 1704 1999.29980469 1623.79980469 c 0,20,21
 2038 1551 2038 1551 2038.29980469 1471.70019531 c 0,22,23
 2038 1344 2038 1344 1947.29980469 1246.79980469 c 0,24,25
 1851 1144 1851 1144 1709.40039062 1144.09960938 c 0,26,27
 1639 1144 1639 1144 1574.20019531 1174 c 0,28,29
 1494 1212 1494 1212 1442.90039062 1284.5 c 0,30,31
 1383 1370 1383 1370 1383.09960938 1473 c 0,32,33
 1383 1552 1383 1552 1423.40039062 1626.40039062 c 0,34,35
 1464 1700 1464 1700 1532.59960938 1746 c 0,36,37
 1614 1799 1614 1799 1712 1799.29980469 c 0,16,17
1687 -59 m 1,38,39
 1509 240 1509 240 1361 662 c 0,40,41
 1220 1065 1220 1065 1128 1518 c 1,42,-1
 1345 1585 l 1,43,44
 1517 722 1517 722 1886 92 c 1,45,-1
 1687 -59 l 1,38,39
94 111 m 1,46,47
 268 367 268 367 393 738 c 0,48,49
 529 1144 529 1144 565 1563 c 1,50,-1
 794 1516 l 1,51,52
 705 902 705 902 555 484 c 0,53,54
 447 180 447 180 289 -49 c 1,55,-1
 94 111 l 1,46,47
EndSplineSet
EndChar

StartChar: uni30D4
Encoding: 12500 12500 6
Width: 2048
GlyphClass: 1
Flags: W
LayerCount: 2
Fore
SplineSet
1714.59960938 1627.29980469 m 0,0,1
 1666 1627 1666 1627 1623.59960938 1600 c 0,2,3
 1547 1552 1547 1552 1546.90039062 1458.29980469 c 0,4,5
 1547 1392 1547 1392 1592.40039062 1343.90039062 c 0,6,7
 1642 1292 1642 1292 1714.59960938 1291.90039062 c 0,8,9
 1756 1292 1756 1292 1791.29980469 1310.09960938 c 0,10,11
 1882 1357 1882 1357 1882.29980469 1458.29980469 c 0,12,13
 1882.01091848 1527.38877661 1882.01091848 1527.38877661 1831.59960938 1579.20019531 c 0,14,15
 1785 1627 1785 1627 1714.59960938 1627.29980469 c 0,0,1
1715.90039062 1787.20019531 m 0,16,17
 1800.17371313 1787.00649612 1800.17371313 1787.00649612 1882.29980469 1739.09960938 c 0,18,19
 1960 1694 1960 1694 2003.20019531 1611.70019531 c 0,20,21
 2042 1539 2042 1539 2042.20019531 1459.59960938 c 0,22,23
 2042 1332 2042 1332 1951.20019531 1234.70019531 c 0,24,25
 1855 1132 1855 1132 1713.29980469 1132 c 0,26,27
 1643 1132 1643 1132 1578.09960938 1161.90039062 c 0,28,29
 1552.39692215 1174.12594766 1552.39692215 1174.12594766 1529.66990861 1189.88333866 c 1,30,-1
 1542 1172 l 1,31,32
 1070 936 1070 936 528 795 c 1,33,-1
 528 332 l 2,34,35
 528 245 528 245 604 228 c 0,36,37
 696 207 696 207 1019 207 c 0,38,39
 1354 207 1354 207 1737 242 c 1,40,-1
 1737 16 l 1,41,42
 1389 -9 1389 -9 1011 -9 c 0,43,44
 616 -9 616 -9 501 12 c 0,45,46
 364 37 364 37 321 135 c 0,47,48
 295 195 295 195 295 287 c 2,49,-1
 295 1647 l 1,50,-1
 528 1647 l 1,51,-1
 528 1008 l 1,52,53
 1037.74222984 1147.56049399 1037.74222984 1147.56049399 1403.47066117 1357.65835869 c 1,54,55
 1387 1406.89679743 1387 1406.89679743 1387 1460.90039062 c 0,56,57
 1387 1540 1387 1540 1427.29980469 1614.29980469 c 0,58,59
 1469.86789398 1691.38239534 1469.86789398 1691.38239534 1535.20019531 1733.90039062 c 0,60,61
 1617 1787 1617 1787 1715.90039062 1787.20019531 c 0,16,17
EndSplineSet
EndChar

StartChar: uni30D7
Encoding: 12503 12503 7
Width: 2048
GlyphClass: 1
Flags: W
LayerCount: 2
Fore
SplineSet
1729.04980469 1653.48046875 m 0,0,1
 1681 1653 1681 1653 1638.04980469 1626.1796875 c 0,2,3
 1561 1578 1561 1578 1561.34960938 1484.48046875 c 0,4,5
 1561 1418 1561 1418 1606.84960938 1370.08007812 c 0,6,7
 1656 1318 1656 1318 1729.04980469 1318.08007812 c 0,8,9
 1771 1318 1771 1318 1805.75 1336.28027344 c 0,10,11
 1897 1383 1897 1383 1896.75 1484.48046875 c 0,12,13
 1896.98959808 1553.02423889 1896.98959808 1553.02423889 1846.04980469 1605.37988281 c 0,14,15
 1799 1653 1799 1653 1729.04980469 1653.48046875 c 0,0,1
1730.34960938 1813.37988281 m 0,16,17
 1817 1813 1817 1813 1896.75 1765.28027344 c 0,18,19
 1973.05413956 1721.1259948 1973.05413956 1721.1259948 2017.65039062 1637.87988281 c 0,20,21
 2057 1565 2057 1565 2056.65039062 1485.78027344 c 0,22,23
 2057 1358 2057 1358 1965.65039062 1260.87988281 c 0,24,25
 1869 1158 1869 1158 1727.75 1158.1796875 c 0,26,27
 1707.11101702 1158.12651808 1707.11101702 1158.12651808 1686.84850969 1160.8365927 c 1,28,29
 1643.99565384 758.833870427 1643.99565384 758.833870427 1519 522 c 0,30,31
 1363 226 1363 226 1036 61 c 0,32,33
 832 -42 832 -42 492 -123 c 1,34,-1
 377 80 l 1,35,36
 711 141 711 141 906 238 c 0,37,38
 1224 395 1224 395 1356 716 c 0,39,40
 1438 916 1438 916 1450 1229 c 1,41,-1
 160 1229 l 1,42,-1
 160 1438 l 1,43,-1
 1404.81944724 1438 l 1,44,45
 1401.34073867 1462.01806744 1401.34073867 1462.01806744 1401.45019531 1487.08007812 c 0,46,47
 1401 1566 1401 1566 1441.75 1640.48046875 c 0,48,49
 1482 1715 1482 1715 1549.65039062 1760.08007812 c 0,50,51
 1632 1813 1632 1813 1730.34960938 1813.37988281 c 0,16,17
EndSplineSet
EndChar

StartChar: uni30DA
Encoding: 12506 12506 8
Width: 2048
GlyphClass: 1
Flags: W
LayerCount: 2
Fore
SplineSet
51 615 m 5,0,1
 266 620 266 620 266 620 c 5,2,3
 501 952 501 952 708 1462 c 5,4,-1
 954 1462 l 5,5,6
 1319 833 1319 833 1935 223 c 5,7,-1
 1794 25 l 5,8,9
 1287 522 1287 522 839 1226 c 5,10,-1
 831 1226 l 5,11,12
 606 710 606 710 392 392 c 5,13,14
 150 381 150 381 54 381 c 5,15,-1
 51 615 l 5,0,1
1623 1596 m 0,16,17
 1690 1596 1690 1596 1751 1559 c 0,18,19
 1811 1524 1811 1524 1844 1461 c 0,20,21
 1874 1405 1874 1405 1874 1344 c 0,22,23
 1874 1246 1874 1246 1804 1171 c 0,24,25
 1730 1092 1730 1092 1621 1092 c 0,26,27
 1567 1092 1567 1092 1517 1115 c 0,28,29
 1455 1144 1455 1144 1416 1200 c 0,30,31
 1370 1266 1370 1266 1370 1345 c 0,32,33
 1370 1406 1370 1406 1401 1463 c 128,-1,34
 1432 1520 1432 1520 1484 1555 c 0,35,36
 1547 1596 1547 1596 1623 1596 c 0,16,17
1622 1473 m 0,37,38
 1585 1473 1585 1473 1552 1452 c 0,39,40
 1493 1415 1493 1415 1493 1343 c 0,41,42
 1493 1292 1493 1292 1528 1255 c 0,43,44
 1566 1215 1566 1215 1622 1215 c 0,45,46
 1654 1215 1654 1215 1681 1229 c 0,47,48
 1751 1265 1751 1265 1751 1343 c 0,49,50
 1751 1398 1751 1398 1712 1436 c 0,51,52
 1676 1473 1676 1473 1622 1473 c 0,37,38
EndSplineSet
EndChar

StartChar: uni30DD
Encoding: 12509 12509 9
Width: 2048
GlyphClass: 1
Flags: W
LayerCount: 2
Fore
SplineSet
1732.84960938 1659.70019531 m 0,0,1
 1686 1660 1686 1660 1643.15039062 1632.40039062 c 0,2,3
 1566 1584 1566 1584 1566.45019531 1490.70019531 c 0,4,5
 1566 1424 1566 1424 1611.95019531 1376.29980469 c 0,6,7
 1661 1324 1661 1324 1734.15039062 1324.29980469 c 0,8,9
 1774 1324 1774 1324 1810.84960938 1342.5 c 0,10,11
 1901 1389 1901 1389 1900.54980469 1490.70019531 c 0,12,13
 1900.9813524 1559.04668067 1900.9813524 1559.04668067 1849.84960938 1611.59960938 c 0,14,15
 1803 1660 1803 1660 1732.84960938 1659.70019531 c 0,0,1
1735.45019531 1819.59960938 m 0,16,17
 1819.74097489 1819.98509553 1819.74097489 1819.98509553 1900.54980469 1771.5 c 0,18,19
 1979 1725 1979 1725 2021.45019531 1644.09960938 c 0,20,21
 2060 1571 2060 1571 2060.45019531 1492 c 0,22,23
 2060 1365 2060 1365 1969.45019531 1267.09960938 c 0,24,25
 1929.47797015 1224.37164199 1929.47797015 1224.37164199 1882 1199.42035961 c 1,26,-1
 1882 1075 l 1,27,-1
 1128 1075 l 1,28,-1
 1128 -129 l 1,29,-1
 903 -129 l 1,30,-1
 903 1075 l 1,31,-1
 165 1075 l 1,32,-1
 165 1276 l 1,33,-1
 903 1276 l 1,34,-1
 903 1696 l 1,35,-1
 1128 1696 l 1,36,-1
 1128 1276 l 1,37,-1
 1488.74731052 1276 l 1,38,39
 1476.89789665 1289.63875176 1476.89789665 1289.63875176 1466.34960938 1304.79980469 c 0,40,41
 1407 1391 1407 1391 1406.54980469 1493.29980469 c 0,42,43
 1407 1573 1407 1573 1446.84960938 1646.70019531 c 0,44,45
 1487 1721 1487 1721 1554.75 1766.29980469 c 0,46,47
 1637 1820 1637 1820 1735.45019531 1819.59960938 c 0,16,17
1738 31 m 1,48,49
 1513 369 1513 369 1366 872 c 1,50,-1
 1581 944 l 1,51,52
 1703 526 1703 526 1941 164 c 1,53,-1
 1738 31 l 1,48,49
106 158 m 1,54,55
 327 447 327 447 403 913 c 1,56,-1
 622 854 l 1,57,58
 530 314 530 314 305 4 c 1,59,-1
 106 158 l 1,54,55
EndSplineSet
EndChar

StartChar: uni529B
Encoding: 21147 21147 10
Width: 2048
Flags: W
LayerCount: 2
Fore
SplineSet
1643 1128 m 1,0,-1
 1068 1128 l 1,1,2
 1033 702 1033 702 875 403 c 0,3,4
 700 70 700 70 262 -168 c 1,5,-1
 100 16 l 1,6,7
 452 185 452 185 646 495 c 0,8,9
 788 724 788 724 833 1128 c 1,10,-1
 155 1128 l 1,11,-1
 155 1333 l 1,12,-1
 853 1333 l 1,13,-1
 870 1751 l 1,14,-1
 1101 1751 l 1,15,-1
 1082 1333 l 1,16,-1
 1518.85169492 1333 l 1,17,-1
 1764 1536 l 1,18,-1
 1959 1301 l 1,19,-1
 1873.56387153 1104.16186088 l 1,20,21
 1856.45561877 294.398411554 1856.45561877 294.398411554 1799 55 c 0,22,23
 1770 -65 1770 -65 1684 -113 c 0,24,25
 1616 -152 1616 -152 1498 -152 c 0,26,27
 1319 -152 1319 -152 1116 -123 c 1,28,-1
 1073 110 l 1,29,30
 1286 71 1286 71 1425 71 c 0,31,32
 1539 71 1539 71 1566 134 c 0,33,34
 1583 176 1583 176 1604 376 c 0,35,36
 1632 651 1632 651 1643 1128 c 1,0,-1
EndSplineSet
EndChar

StartChar: uni5DE5
Encoding: 24037 24037 11
Width: 2048
Flags: W
LayerCount: 2
Fore
SplineSet
1134 1321 m 1,0,-1
 1134 205 l 1,1,-1
 1583 205 l 1,2,-1
 1790 412 l 5,3,-1
 1997 205 l 1,4,-1
 1997 -6 l 1,5,-1
 51 -6 l 1,6,-1
 51 205 l 1,7,-1
 901 205 l 1,8,-1
 901 1321 l 1,9,-1
 168 1321 l 1,10,-1
 168 1526 l 1,11,-1
 1468 1526 l 1,12,-1
 1675 1733 l 5,13,-1
 1882 1526 l 1,14,-1
 1882 1321 l 1,15,-1
 1134 1321 l 1,0,-1
EndSplineSet
EndChar

StartChar: uni53E3
Encoding: 21475 21475 12
Width: 2048
Flags: W
LayerCount: 2
Fore
SplineSet
446 1364 m 1,0,-1
 446 262 l 1,1,-1
 1604 262 l 1,2,-1
 1604 1364 l 1,3,-1
 446 1364 l 1,0,-1
1829 1342.07843137 m 1,4,-1
 1829 -96 l 1,5,-1
 1604 -96 l 1,6,-1
 1604 57 l 1,7,-1
 446 57 l 1,8,-1
 446 -94 l 1,9,-1
 221 -94 l 1,10,-1
 221 1563 l 1,11,-1
 1470.85169492 1563 l 1,12,-1
 1716 1766 l 1,13,-1
 1911 1531 l 1,14,-1
 1829 1342.07843137 l 1,4,-1
EndSplineSet
EndChar

StartChar: uni4E00
Encoding: 19968 19968 13
Width: 2048
Flags: W
LayerCount: 2
Fore
SplineSet
1986 948 m 1,0,-1
 1986 715 l 1,1,-1
 63 715 l 1,2,-1
 63 948 l 1,3,-1
 1572 948 l 1,4,-1
 1779 1155 l 5,5,-1
 1986 948 l 1,0,-1
EndSplineSet
EndChar

StartChar: uni4E8C
Encoding: 20108 20108 14
Width: 2048
Flags: W
LayerCount: 2
Fore
SplineSet
1761 1454 m 1,0,-1
 1761 1235 l 1,1,-1
 289 1235 l 1,2,-1
 289 1454 l 1,3,-1
 1347 1454 l 1,4,-1
 1554 1661 l 5,5,-1
 1761 1454 l 1,0,-1
1997 264 m 1,6,-1
 1997 45 l 1,7,-1
 51 45 l 1,8,-1
 51 264 l 1,9,-1
 1583 264 l 1,10,-1
 1790 471 l 5,11,-1
 1997 264 l 1,6,-1
EndSplineSet
EndChar

StartChar: uni30DB
Encoding: 12507 12507 15
Width: 2048
Flags: W
LayerCount: 2
Fore
SplineSet
102 362 m 1,0,1
 463 829 463 829 708 1423 c 1,2,-1
 954 1423 l 1,3,4
 1319 796 1319 796 1935 182 c 1,5,-1
 1794 -14 l 1,6,7
 1290 481 1290 481 839 1186 c 1,8,-1
 831 1186 l 1,9,10
 560 574 560 574 280 203 c 1,11,-1
 102 362 l 1,0,1
1623.29980469 1671.59960938 m 4,12,13
 1706.5843788 1671.9842263 1706.5843788 1671.9842263 1789.70019531 1623.5 c 4,14,15
 1868 1578 1868 1578 1910.59960938 1496.09960938 c 4,16,17
 1950 1423 1950 1423 1949.59960938 1344 c 4,18,19
 1950 1217 1950 1217 1858.59960938 1119.09960938 c 4,20,21
 1762 1016 1762 1016 1620.70019531 1016.40039062 c 4,22,23
 1550 1016 1550 1016 1485.5 1046.29980469 c 4,24,25
 1405 1084 1405 1084 1354.20019531 1156.79980469 c 4,26,27
 1294 1243 1294 1243 1294.40039062 1345.29980469 c 4,28,29
 1294 1425 1294 1425 1334.70019531 1498.70019531 c 4,30,31
 1375 1573 1375 1573 1442.59960938 1618.29980469 c 4,32,33
 1524 1672 1524 1672 1623.29980469 1671.59960938 c 4,12,13
1622 1511.70019531 m 4,34,35
 1574 1512 1574 1512 1531 1484.40039062 c 4,36,37
 1454 1436 1454 1436 1454.29980469 1342.70019531 c 4,38,39
 1454 1276 1454 1276 1499.79980469 1228.29980469 c 4,40,41
 1549 1176 1549 1176 1622 1176.29980469 c 4,42,43
 1664 1176 1664 1176 1698.70019531 1194.5 c 4,44,45
 1790 1241 1790 1241 1789.70019531 1342.70019531 c 4,46,47
 1789.98820209 1411.19421126 1789.98820209 1411.19421126 1739 1463.59960938 c 4,48,49
 1692 1512 1692 1512 1622 1511.70019531 c 4,34,35
EndSplineSet
EndChar

StartChar: uni30D8
Encoding: 12504 12504 16
Width: 2048
Flags: W
LayerCount: 2
Fore
SplineSet
51 615 m 1,0,1
 266 620 266 620 266 620 c 1,2,3
 501 952 501 952 708 1462 c 1,4,-1
 954 1462 l 1,5,6
 1319 833 1319 833 1935 223 c 1,7,-1
 1794 25 l 1,8,9
 1287 522 1287 522 839 1226 c 1,10,-1
 831 1226 l 1,11,12
 606 710 606 710 392 392 c 1,13,14
 150 381 150 381 54 381 c 1,15,-1
 51 615 l 1,0,1
EndSplineSet
EndChar

StartChar: uni30D9
Encoding: 12505 12505 17
Width: 2048
Flags: W
LayerCount: 2
Fore
SplineSet
51 615 m 5,0,1
 266 620 266 620 266 620 c 5,2,3
 501 952 501 952 708 1462 c 5,4,-1
 954 1462 l 5,5,6
 1319 833 1319 833 1935 223 c 5,7,-1
 1794 25 l 5,8,9
 1287 522 1287 522 839 1226 c 5,10,-1
 831 1226 l 5,11,12
 606 710 606 710 392 392 c 5,13,14
 150 381 150 381 54 381 c 5,15,-1
 51 615 l 5,0,1
1468 1065 m 1,16,17
 1404 1232 1404 1232 1263 1434 c 1,18,-1
 1421 1491 l 1,19,20
 1546 1317 1546 1317 1628 1130 c 1,21,-1
 1468 1065 l 1,16,17
1755 1153 m 1,22,23
 1670 1359 1670 1359 1554 1524 c 1,24,-1
 1701 1573 l 1,25,26
 1818 1433 1818 1433 1904 1225 c 1,27,-1
 1755 1153 l 1,22,23
EndSplineSet
EndChar

StartChar: uni529C
Encoding: 21148 21148 18
Width: 2048
Flags: W
LayerCount: 2
Fore
SplineSet
1462 1284 m 5,0,-1
 1747 1520 l 5,1,-1
 1942 1285 l 5,2,-1
 1840 1050 l 5,3,-1
 1860 1317 l 5,4,-1
 1462 1284 l 5,0,-1
EndSplineSet
EndChar

StartChar: uni5DE6
Encoding: 24038 24038 19
Width: 2048
Flags: W
LayerCount: 2
Fore
SplineSet
1458 1507 m 1,0,-1
 1665 1714 l 5,1,-1
 1872 1507 l 1,2,-1
 1458 1507 l 1,0,-1
EndSplineSet
EndChar

StartChar: uni53E4
Encoding: 21476 21476 20
Width: 2048
Flags: W
LayerCount: 2
Fore
SplineSet
1462 1284 m 5,0,-1
 1747 1520 l 5,1,-1
 1942 1285 l 5,2,-1
 1840 1050 l 5,3,-1
 1860 1317 l 5,4,-1
 1462 1284 l 5,0,-1
EndSplineSet
EndChar

StartChar: uni4E01
Encoding: 19969 19969 21
Width: 2048
Flags: W
LayerCount: 2
Fore
SplineSet
1458 1507 m 1,0,-1
 1665 1714 l 5,1,-1
 1872 1507 l 1,2,-1
 1458 1507 l 1,0,-1
EndSplineSet
EndChar

StartChar: uni4E8D
Encoding: 20109 20109 22
Width: 2048
Flags: W
LayerCount: 2
Fore
SplineSet
1458 1507 m 1,0,-1
 1665 1714 l 5,1,-1
 1872 1507 l 1,2,-1
 1458 1507 l 1,0,-1
EndSplineSet
EndChar

StartChar: uni30FC
Encoding: 12540 12540 23
Width: 2048
Flags: W
LayerCount: 2
Fore
SplineSet
143 1076 m 1,0,-1
 350 926 l 1,1,2
 350 926 350 926 1904 926 c 1,3,-1
 1904 701 l 1,4,-1
 350 701 l 1,5,6
 350 701 350 701 143 851 c 1,7,-1
 143 1076 l 1,0,-1
EndSplineSet
EndChar
